<svg width="512" height="512" version="1.1" xmlns="http://www.w3.org/2000/svg" desc="Created with imagetracer.js version 1.2.6" ><path fill="rgb(0,0,0)" stroke="rgb(0,0,0)" stroke-width="1" opacity="0" d="M 0 0 L 512 0 L 512 512 L 0 512 L 0 0 Z M 252 11 L 245 14 L 239 23 L 239 72 L 252 72 L 253 71 L 255 72 L 267 72 L 267 23 L 265 18 Q 262 11 252 11 Z M 114 68 L 109 70 L 102 79 L 102 86 L 106 93 L 140 126 L 142 126 L 160 107 L 125 71 Q 121 67 114 68 Z M 389 68 L 381 72 L 346 107 L 366 127 L 401 92 L 404 87 Q 406 79 403 76 Q 399 68 389 68 Z M 242 98 L 210 105 Q 186 115 169 130 Q 154 143 144 160 L 132 186 L 126 215 L 126 237 L 127 238 L 128 253 L 135 278 Q 142 293 151 306 L 180 338 L 184 345 L 185 356 L 186 357 L 187 385 L 192 396 L 201 404 L 207 407 L 216 409 L 291 409 L 300 407 L 310 401 Q 316 395 319 385 Q 318 380 320 379 L 320 359 L 323 343 L 352 310 L 365 291 L 375 267 L 380 239 L 380 214 L 376 192 Q 367 162 349 142 Q 338 129 324 119 L 297 105 L 283 101 L 266 99 L 265 98 L 242 98 Z M 59 205 L 51 208 Q 46 211 45 217 Q 44 225 48 229 L 55 233 L 107 233 L 107 213 L 108 212 Q 109 205 108 205 L 59 205 Z M 400 205 L 398 207 L 399 211 L 399 233 L 452 233 L 456 231 L 461 224 Q 462 215 459 212 Q 455 206 448 205 L 400 205 Z M 133 320 L 105 348 L 102 354 Q 101 361 104 365 Q 107 369 114 371 Q 122 371 126 367 L 151 342 L 137 324 L 133 320 Z M 373 320 L 358 338 L 356 343 L 380 366 L 389 371 Q 395 372 398 369 Q 403 367 404 361 Q 405 352 402 349 L 373 320 Z M 215 417 L 211 419 L 206 424 L 204 431 L 207 439 L 217 444 L 290 444 L 296 442 Q 300 439 302 433 Q 303 426 300 424 L 292 417 L 215 417 Z M 218 450 L 210 453 L 207 456 L 204 464 L 206 471 L 215 477 L 292 477 L 296 475 Q 300 472 302 466 Q 303 459 300 457 Q 296 451 289 450 L 218 450 Z M 223 484 L 224 490 L 230 495 L 242 499 L 266 499 L 280 493 L 283 489 Q 283 484 283 484 L 223 484 Z " /><path fill="rgb(0,0,0)" stroke="rgb(0,0,0)" stroke-width="1" opacity="0" d="M 240.5 120 L 265.5 120 L 266.5 121 L 277.5 122 L 290.5 126 Q 318.7 137.3 336 159.5 Q 348.6 174.9 355 196.5 L 358 211.5 L 358 241.5 L 354 261.5 L 346 280.5 Q 330.6 304.6 310 323.5 L 303 334.5 L 299 352.5 L 298 380.5 L 293.5 386 L 291.5 387 L 214.5 387 L 210 383.5 L 208 378.5 L 208 360.5 L 207 359.5 L 207 350.5 L 204 336.5 Q 200 326.5 193 319.5 L 166 289.5 L 155 269.5 L 150 252.5 L 149 241.5 L 148 240.5 L 148 212.5 Q 156 166.5 186.5 143 Q 198.4 133.4 213.5 127 L 221.5 124 L 240.5 120 Z " /><path fill="rgb(0,0,0)" stroke="rgb(0,0,0)" stroke-width="1" opacity="0.9803921568627451" d="M 251.5 11 Q 261.6 10.9 265 17.5 L 267 22.5 L 267 72 L 254.5 72 L 252.5 71 L 251.5 72 L 239 72 L 239 22.5 L 244.5 14 L 251.5 11 Z " /><path fill="rgb(0,0,0)" stroke="rgb(0,0,0)" stroke-width="1" opacity="0.9803921568627451" d="M 113.5 68 Q 121.3 67.2 124.5 71 L 160 106.5 L 141.5 126 L 139.5 126 L 106 92.5 L 102 85.5 L 102 78.5 L 108.5 70 L 113.5 68 Z " /><path fill="rgb(0,0,0)" stroke="rgb(0,0,0)" stroke-width="1" opacity="0.9803921568627451" d="M 388.5 68 Q 399.3 68.3 403 75.5 Q 405.5 79 404 86.5 L 401 91.5 L 365.5 127 L 346 106.5 L 380.5 72 L 388.5 68 Z " /><path fill="rgb(0,0,0)" stroke="rgb(0,0,0)" stroke-width="1" opacity="0.9803921568627451" d="M 241.5 98 L 264.5 98 L 265.5 99 L 282.5 101 L 296.5 105 L 323.5 119 Q 337.8 128.7 349 141.5 Q 367.2 161.8 376 191.5 L 380 213.5 L 380 238.5 L 375 266.5 L 365 290.5 L 352 309.5 L 323 342.5 L 320 358.5 L 320 378.5 Q 317.8 379.8 319 384.5 Q 316.5 395 309.5 401 L 299.5 407 L 290.5 409 L 215.5 409 L 206.5 407 L 200.5 404 L 192 395.5 L 187 384.5 L 186 356.5 L 185 355.5 L 184 344.5 L 180 337.5 L 151 305.5 Q 141.5 293 135 277.5 L 128 252.5 L 127 237.5 L 126 236.5 L 126 214.5 L 132 185.5 L 144 159.5 Q 154.2 142.7 168.5 130 Q 186 114.5 209.5 105 L 241.5 98 Z M 241 120 L 222 124 L 214 127 Q 198 133 187 143 Q 156 167 148 213 L 148 241 L 149 242 L 150 253 L 155 270 L 166 290 L 193 320 Q 200 327 204 337 L 207 351 L 207 360 L 208 361 L 208 379 L 210 384 L 215 387 L 292 387 L 294 386 L 298 381 L 299 353 L 303 335 L 310 324 Q 331 305 346 281 L 354 262 L 358 242 L 358 212 L 355 197 Q 349 175 336 160 Q 319 137 291 126 L 278 122 L 267 121 L 266 120 L 241 120 Z " /><path fill="rgb(0,0,0)" stroke="rgb(0,0,0)" stroke-width="1" opacity="0.9803921568627451" d="M 58.5 205 L 107.5 205 Q 108.8 205.3 108 211.5 L 107 212.5 L 107 233 L 54.5 233 L 48 228.5 Q 44 225 45 216.5 Q 46.3 210.8 50.5 208 L 58.5 205 Z " /><path fill="rgb(0,0,0)" stroke="rgb(0,0,0)" stroke-width="1" opacity="0.9803921568627451" d="M 399.5 205 L 447.5 205 Q 455.3 206.2 459 211.5 Q 462.3 215.2 461 223.5 L 455.5 231 L 451.5 233 L 399 233 L 399 210.5 L 398 206.5 L 399.5 205 Z " /><path fill="rgb(0,0,0)" stroke="rgb(0,0,0)" stroke-width="1" opacity="0.9803921568627451" d="M 132.5 320 L 137 323.5 L 151 341.5 L 125.5 367 Q 121.5 371 113.5 371 Q 107 369.5 104 364.5 Q 100.8 361.2 102 353.5 L 105 347.5 L 132.5 320 Z " /><path fill="rgb(0,0,0)" stroke="rgb(0,0,0)" stroke-width="1" opacity="0.9803921568627451" d="M 372.5 320 L 402 348.5 Q 405.3 352.2 404 360.5 Q 402.6 366.6 397.5 369 Q 394.6 371.6 388.5 371 L 379.5 366 L 356 342.5 L 358 337.5 L 372.5 320 Z " /><path fill="rgb(0,0,0)" stroke="rgb(0,0,0)" stroke-width="1" opacity="0.9803921568627451" d="M 214.5 417 L 291.5 417 L 300 423.5 Q 302.6 426.4 302 432.5 Q 300.5 439 295.5 442 L 289.5 444 L 216.5 444 L 207 438.5 L 204 430.5 L 206 423.5 L 210.5 419 L 214.5 417 Z " /><path fill="rgb(0,0,0)" stroke="rgb(0,0,0)" stroke-width="1" opacity="0.9803921568627451" d="M 217.5 450 L 288.5 450 Q 296.3 451.2 300 456.5 Q 302.6 459.4 302 465.5 Q 300.5 472 295.5 475 L 291.5 477 L 214.5 477 L 206 470.5 L 204 463.5 L 207 455.5 L 209.5 453 L 217.5 450 Z " /><path fill="rgb(0,0,0)" stroke="rgb(0,0,0)" stroke-width="1" opacity="0.9803921568627451" d="M 223 484 L 282.5 484 Q 283.5 484 283 488.5 L 279.5 493 L 265.5 499 L 241.5 499 L 229.5 495 L 224 489.5 L 223 484 Z " /></svg>