<svg xmlns="http://www.w3.org/2000/svg" xmlns:xlink="http://www.w3.org/1999/xlink" width="211" zoomAndPan="magnify" viewBox="0 0 158.25 273.75" height="365" preserveAspectRatio="xMidYMid meet" version="1.0"><defs><clipPath id="64e1b68ba4"><path d="M 42.789062 235.539062 L 116.269531 235.539062 L 116.269531 260.128906 L 42.789062 260.128906 Z M 42.789062 235.539062 " clip-rule="nonzero"/></clipPath><clipPath id="ff36776b5d"><path d="M 55.082031 235.539062 L 103.894531 235.539062 C 107.15625 235.539062 110.28125 236.832031 112.589844 239.140625 C 114.894531 241.445312 116.1875 244.574219 116.1875 247.832031 C 116.1875 251.09375 114.894531 254.222656 112.589844 256.527344 C 110.28125 258.832031 107.15625 260.128906 103.894531 260.128906 L 55.082031 260.128906 C 51.820312 260.128906 48.695312 258.832031 46.386719 256.527344 C 44.082031 254.222656 42.789062 251.09375 42.789062 247.832031 C 42.789062 244.574219 44.082031 241.445312 46.386719 239.140625 C 48.695312 236.832031 51.820312 235.539062 55.082031 235.539062 Z M 55.082031 235.539062 " clip-rule="nonzero"/></clipPath><clipPath id="1ef80d4825"><path d="M 0.789062 0.539062 L 74.269531 0.539062 L 74.269531 25.128906 L 0.789062 25.128906 Z M 0.789062 0.539062 " clip-rule="nonzero"/></clipPath><clipPath id="464dfcaf22"><path d="M 13.082031 0.539062 L 61.894531 0.539062 C 65.15625 0.539062 68.28125 1.832031 70.589844 4.140625 C 72.894531 6.445312 74.1875 9.574219 74.1875 12.832031 C 74.1875 16.09375 72.894531 19.222656 70.589844 21.527344 C 68.28125 23.832031 65.15625 25.128906 61.894531 25.128906 L 13.082031 25.128906 C 9.820312 25.128906 6.695312 23.832031 4.386719 21.527344 C 2.082031 19.222656 0.789062 16.09375 0.789062 12.832031 C 0.789062 9.574219 2.082031 6.445312 4.386719 4.140625 C 6.695312 1.832031 9.820312 0.539062 13.082031 0.539062 Z M 13.082031 0.539062 " clip-rule="nonzero"/></clipPath><clipPath id="a66f522a66"><rect x="0" width="75" y="0" height="26"/></clipPath><clipPath id="3fc305a153"><path d="M 61.976562 156.40625 L 70.144531 156.40625 L 70.144531 229.816406 L 61.976562 229.816406 Z M 61.976562 156.40625 " clip-rule="nonzero"/></clipPath><clipPath id="7787c093bb"><path d="M 70.144531 160.488281 L 70.144531 225.722656 C 70.144531 227.976562 68.316406 229.804688 66.0625 229.804688 C 63.804688 229.804688 61.976562 227.976562 61.976562 225.722656 L 61.976562 160.488281 C 61.976562 158.234375 63.804688 156.40625 66.0625 156.40625 C 68.316406 156.40625 70.144531 158.234375 70.144531 160.488281 Z M 70.144531 160.488281 " clip-rule="nonzero"/></clipPath><clipPath id="2f8537d207"><path d="M 0.976562 0.40625 L 9.144531 0.40625 L 9.144531 73.816406 L 0.976562 73.816406 Z M 0.976562 0.40625 " clip-rule="nonzero"/></clipPath><clipPath id="5ca12bf94c"><path d="M 9.144531 4.488281 L 9.144531 69.722656 C 9.144531 71.976562 7.316406 73.804688 5.0625 73.804688 C 2.804688 73.804688 0.976562 71.976562 0.976562 69.722656 L 0.976562 4.488281 C 0.976562 2.234375 2.804688 0.40625 5.0625 0.40625 C 7.316406 0.40625 9.144531 2.234375 9.144531 4.488281 Z M 9.144531 4.488281 " clip-rule="nonzero"/></clipPath><clipPath id="725571fd6a"><rect x="0" width="10" y="0" height="74"/></clipPath><clipPath id="cf208f1e37"><path d="M 86.460938 156.40625 L 94.628906 156.40625 L 94.628906 229.816406 L 86.460938 229.816406 Z M 86.460938 156.40625 " clip-rule="nonzero"/></clipPath><clipPath id="f9d4e3e72c"><path d="M 94.628906 160.488281 L 94.628906 225.722656 C 94.628906 227.976562 92.800781 229.804688 90.546875 229.804688 C 88.289062 229.804688 86.460938 227.976562 86.460938 225.722656 L 86.460938 160.488281 C 86.460938 158.234375 88.289062 156.40625 90.546875 156.40625 C 92.800781 156.40625 94.628906 158.234375 94.628906 160.488281 Z M 94.628906 160.488281 " clip-rule="nonzero"/></clipPath><clipPath id="ca9eeeff1d"><path d="M 0.460938 0.40625 L 8.628906 0.40625 L 8.628906 73.816406 L 0.460938 73.816406 Z M 0.460938 0.40625 " clip-rule="nonzero"/></clipPath><clipPath id="1e18a05e3f"><path d="M 8.628906 4.488281 L 8.628906 69.722656 C 8.628906 71.976562 6.800781 73.804688 4.546875 73.804688 C 2.289062 73.804688 0.460938 71.976562 0.460938 69.722656 L 0.460938 4.488281 C 0.460938 2.234375 2.289062 0.40625 4.546875 0.40625 C 6.800781 0.40625 8.628906 2.234375 8.628906 4.488281 Z M 8.628906 4.488281 " clip-rule="nonzero"/></clipPath><clipPath id="1fdf646735"><rect x="0" width="9" y="0" height="74"/></clipPath><clipPath id="a332bf4faa"><path d="M 86.464844 156.402344 L 114.125 156.402344 L 114.125 164.570312 L 86.464844 164.570312 Z M 86.464844 156.402344 " clip-rule="nonzero"/></clipPath><clipPath id="ace1900ee6"><path d="M 90.550781 156.402344 L 110.011719 156.402344 C 112.265625 156.402344 114.097656 158.234375 114.097656 160.488281 C 114.097656 162.742188 112.265625 164.570312 110.011719 164.570312 L 90.550781 164.570312 C 88.292969 164.570312 86.464844 162.742188 86.464844 160.488281 C 86.464844 158.234375 88.292969 156.402344 90.550781 156.402344 Z M 90.550781 156.402344 " clip-rule="nonzero"/></clipPath><clipPath id="6b7de0cbfb"><path d="M 0.464844 0.402344 L 28.125 0.402344 L 28.125 8.570312 L 0.464844 8.570312 Z M 0.464844 0.402344 " clip-rule="nonzero"/></clipPath><clipPath id="5c569687c6"><path d="M 4.550781 0.402344 L 24.011719 0.402344 C 26.265625 0.402344 28.097656 2.234375 28.097656 4.488281 C 28.097656 6.742188 26.265625 8.570312 24.011719 8.570312 L 4.550781 8.570312 C 2.292969 8.570312 0.464844 6.742188 0.464844 4.488281 C 0.464844 2.234375 2.292969 0.402344 4.550781 0.402344 Z M 4.550781 0.402344 " clip-rule="nonzero"/></clipPath><clipPath id="c239654401"><rect x="0" width="29" y="0" height="9"/></clipPath><clipPath id="21625f435d"><path d="M 42.519531 156.402344 L 70.179688 156.402344 L 70.179688 164.570312 L 42.519531 164.570312 Z M 42.519531 156.402344 " clip-rule="nonzero"/></clipPath><clipPath id="d0e30cbfa4"><path d="M 46.601562 156.402344 L 66.066406 156.402344 C 68.320312 156.402344 70.148438 158.234375 70.148438 160.488281 C 70.148438 162.742188 68.320312 164.570312 66.066406 164.570312 L 46.601562 164.570312 C 44.347656 164.570312 42.519531 162.742188 42.519531 160.488281 C 42.519531 158.234375 44.347656 156.402344 46.601562 156.402344 Z M 46.601562 156.402344 " clip-rule="nonzero"/></clipPath><clipPath id="636c5c3b01"><path d="M 0.519531 0.402344 L 28.179688 0.402344 L 28.179688 8.570312 L 0.519531 8.570312 Z M 0.519531 0.402344 " clip-rule="nonzero"/></clipPath><clipPath id="94485f08fc"><path d="M 4.601562 0.402344 L 24.066406 0.402344 C 26.320312 0.402344 28.148438 2.234375 28.148438 4.488281 C 28.148438 6.742188 26.320312 8.570312 24.066406 8.570312 L 4.601562 8.570312 C 2.347656 8.570312 0.519531 6.742188 0.519531 4.488281 C 0.519531 2.234375 2.347656 0.402344 4.601562 0.402344 Z M 4.601562 0.402344 " clip-rule="nonzero"/></clipPath><clipPath id="962038d842"><rect x="0" width="29" y="0" height="9"/></clipPath><clipPath id="15a22dcffb"><path d="M 42.78125 135.929688 L 50.949219 135.929688 L 50.949219 163.589844 L 42.78125 163.589844 Z M 42.78125 135.929688 " clip-rule="nonzero"/></clipPath><clipPath id="e00c332df6"><path d="M 50.949219 140.011719 L 50.949219 159.476562 C 50.949219 161.730469 49.117188 163.558594 46.863281 163.558594 C 44.609375 163.558594 42.78125 161.730469 42.78125 159.476562 L 42.78125 140.011719 C 42.78125 137.757812 44.609375 135.929688 46.863281 135.929688 C 49.117188 135.929688 50.949219 137.757812 50.949219 140.011719 Z M 50.949219 140.011719 " clip-rule="nonzero"/></clipPath><clipPath id="473295dd91"><path d="M 0.78125 0.929688 L 8.949219 0.929688 L 8.949219 28.589844 L 0.78125 28.589844 Z M 0.78125 0.929688 " clip-rule="nonzero"/></clipPath><clipPath id="fc5be08128"><path d="M 8.949219 5.011719 L 8.949219 24.476562 C 8.949219 26.730469 7.117188 28.558594 4.863281 28.558594 C 2.609375 28.558594 0.78125 26.730469 0.78125 24.476562 L 0.78125 5.011719 C 0.78125 2.757812 2.609375 0.929688 4.863281 0.929688 C 7.117188 0.929688 8.949219 2.757812 8.949219 5.011719 Z M 8.949219 5.011719 " clip-rule="nonzero"/></clipPath><clipPath id="e2bfb41939"><rect x="0" width="9" y="0" height="29"/></clipPath><clipPath id="c89ade6e07"><path d="M 42.789062 135.921875 L 70.449219 135.921875 L 70.449219 144.089844 L 42.789062 144.089844 Z M 42.789062 135.921875 " clip-rule="nonzero"/></clipPath><clipPath id="f286458d9f"><path d="M 46.871094 135.921875 L 66.332031 135.921875 C 68.589844 135.921875 70.417969 137.753906 70.417969 140.007812 C 70.417969 142.261719 68.589844 144.089844 66.332031 144.089844 L 46.871094 144.089844 C 44.617188 144.089844 42.789062 142.261719 42.789062 140.007812 C 42.789062 137.753906 44.617188 135.921875 46.871094 135.921875 Z M 46.871094 135.921875 " clip-rule="nonzero"/></clipPath><clipPath id="8b51fd6b82"><path d="M 0.789062 0.921875 L 28.449219 0.921875 L 28.449219 9.089844 L 0.789062 9.089844 Z M 0.789062 0.921875 " clip-rule="nonzero"/></clipPath><clipPath id="2adfe1a061"><path d="M 4.871094 0.921875 L 24.332031 0.921875 C 26.589844 0.921875 28.417969 2.753906 28.417969 5.007812 C 28.417969 7.261719 26.589844 9.089844 24.332031 9.089844 L 4.871094 9.089844 C 2.617188 9.089844 0.789062 7.261719 0.789062 5.007812 C 0.789062 2.753906 2.617188 0.921875 4.871094 0.921875 Z M 4.871094 0.921875 " clip-rule="nonzero"/></clipPath><clipPath id="e9cf44b03c"><rect x="0" width="29" y="0" height="10"/></clipPath><clipPath id="6d24594763"><path d="M 86.367188 135.921875 L 114 135.921875 L 114 144.089844 L 86.367188 144.089844 Z M 86.367188 135.921875 " clip-rule="nonzero"/></clipPath><clipPath id="fe71e0277d"><path d="M 90.449219 135.921875 L 109.914062 135.921875 C 112.167969 135.921875 113.996094 137.753906 113.996094 140.007812 C 113.996094 142.261719 112.167969 144.089844 109.914062 144.089844 L 90.449219 144.089844 C 88.195312 144.089844 86.367188 142.261719 86.367188 140.007812 C 86.367188 137.753906 88.195312 135.921875 90.449219 135.921875 Z M 90.449219 135.921875 " clip-rule="nonzero"/></clipPath><clipPath id="7fcef313a9"><path d="M 0.367188 0.921875 L 28 0.921875 L 28 9.089844 L 0.367188 9.089844 Z M 0.367188 0.921875 " clip-rule="nonzero"/></clipPath><clipPath id="ec6fe5a44d"><path d="M 4.449219 0.921875 L 23.914062 0.921875 C 26.167969 0.921875 27.996094 2.753906 27.996094 5.007812 C 27.996094 7.261719 26.167969 9.089844 23.914062 9.089844 L 4.449219 9.089844 C 2.195312 9.089844 0.367188 7.261719 0.367188 5.007812 C 0.367188 2.753906 2.195312 0.921875 4.449219 0.921875 Z M 4.449219 0.921875 " clip-rule="nonzero"/></clipPath><clipPath id="a5dca625f9"><rect x="0" width="28" y="0" height="10"/></clipPath><clipPath id="07b9c17478"><path d="M 62.917969 144.988281 L 94.535156 144.988281 L 94.535156 153.152344 L 62.917969 153.152344 Z M 62.917969 144.988281 " clip-rule="nonzero"/></clipPath><clipPath id="6c0658e87d"><path d="M 67.003906 144.988281 L 90.449219 144.988281 C 92.707031 144.988281 94.535156 146.816406 94.535156 149.070312 C 94.535156 151.324219 92.707031 153.152344 90.449219 153.152344 L 67.003906 153.152344 C 64.746094 153.152344 62.917969 151.324219 62.917969 149.070312 C 62.917969 146.816406 64.746094 144.988281 67.003906 144.988281 Z M 67.003906 144.988281 " clip-rule="nonzero"/></clipPath><clipPath id="868642d781"><path d="M 0.917969 0.988281 L 32.535156 0.988281 L 32.535156 9.152344 L 0.917969 9.152344 Z M 0.917969 0.988281 " clip-rule="nonzero"/></clipPath><clipPath id="603971f9d3"><path d="M 5.003906 0.988281 L 28.449219 0.988281 C 30.707031 0.988281 32.535156 2.816406 32.535156 5.070312 C 32.535156 7.324219 30.707031 9.152344 28.449219 9.152344 L 5.003906 9.152344 C 2.746094 9.152344 0.917969 7.324219 0.917969 5.070312 C 0.917969 2.816406 2.746094 0.988281 5.003906 0.988281 Z M 5.003906 0.988281 " clip-rule="nonzero"/></clipPath><clipPath id="96cd0ad341"><rect x="0" width="33" y="0" height="10"/></clipPath><clipPath id="cc0e14dc6a"><path d="M 61.976562 136.941406 L 70.144531 136.941406 L 70.144531 153.054688 L 61.976562 153.054688 Z M 61.976562 136.941406 " clip-rule="nonzero"/></clipPath><clipPath id="01803942ef"><path d="M 70.144531 141.027344 L 70.144531 148.949219 C 70.144531 151.203125 68.316406 153.035156 66.058594 153.035156 C 63.804688 153.035156 61.976562 151.203125 61.976562 148.949219 L 61.976562 141.027344 C 61.976562 138.769531 63.804688 136.941406 66.058594 136.941406 C 68.316406 136.941406 70.144531 138.769531 70.144531 141.027344 Z M 70.144531 141.027344 " clip-rule="nonzero"/></clipPath><clipPath id="044629ae4e"><path d="M 0.976562 0.941406 L 9.144531 0.941406 L 9.144531 17.054688 L 0.976562 17.054688 Z M 0.976562 0.941406 " clip-rule="nonzero"/></clipPath><clipPath id="94fd52235c"><path d="M 9.144531 5.027344 L 9.144531 12.949219 C 9.144531 15.203125 7.316406 17.035156 5.058594 17.035156 C 2.804688 17.035156 0.976562 15.203125 0.976562 12.949219 L 0.976562 5.027344 C 0.976562 2.769531 2.804688 0.941406 5.058594 0.941406 C 7.316406 0.941406 9.144531 2.769531 9.144531 5.027344 Z M 9.144531 5.027344 " clip-rule="nonzero"/></clipPath><clipPath id="44a671ee0b"><rect x="0" width="10" y="0" height="18"/></clipPath><clipPath id="55f9187ea6"><path d="M 86.363281 135.925781 L 94.53125 135.925781 L 94.53125 152.035156 L 86.363281 152.035156 Z M 86.363281 135.925781 " clip-rule="nonzero"/></clipPath><clipPath id="4fee7265fe"><path d="M 94.53125 140.007812 L 94.53125 147.933594 C 94.53125 150.1875 92.699219 152.015625 90.445312 152.015625 C 88.191406 152.015625 86.363281 150.1875 86.363281 147.933594 L 86.363281 140.007812 C 86.363281 137.753906 88.191406 135.925781 90.445312 135.925781 C 92.699219 135.925781 94.53125 137.753906 94.53125 140.007812 Z M 94.53125 140.007812 " clip-rule="nonzero"/></clipPath><clipPath id="414a17fec6"><path d="M 0.363281 0.925781 L 8.53125 0.925781 L 8.53125 17.035156 L 0.363281 17.035156 Z M 0.363281 0.925781 " clip-rule="nonzero"/></clipPath><clipPath id="b37892df0c"><path d="M 8.53125 5.007812 L 8.53125 12.933594 C 8.53125 15.1875 6.699219 17.015625 4.445312 17.015625 C 2.191406 17.015625 0.363281 15.1875 0.363281 12.933594 L 0.363281 5.007812 C 0.363281 2.753906 2.191406 0.925781 4.445312 0.925781 C 6.699219 0.925781 8.53125 2.753906 8.53125 5.007812 Z M 8.53125 5.007812 " clip-rule="nonzero"/></clipPath><clipPath id="148ffa7924"><rect x="0" width="9" y="0" height="18"/></clipPath><clipPath id="24645c7183"><path d="M 105.824219 135.929688 L 113.988281 135.929688 L 113.988281 163.589844 L 105.824219 163.589844 Z M 105.824219 135.929688 " clip-rule="nonzero"/></clipPath><clipPath id="027115a4bc"><path d="M 113.988281 140.011719 L 113.988281 159.476562 C 113.988281 161.730469 112.160156 163.558594 109.90625 163.558594 C 107.652344 163.558594 105.824219 161.730469 105.824219 159.476562 L 105.824219 140.011719 C 105.824219 137.757812 107.652344 135.929688 109.90625 135.929688 C 112.160156 135.929688 113.988281 137.757812 113.988281 140.011719 Z M 113.988281 140.011719 " clip-rule="nonzero"/></clipPath><clipPath id="eb0b7b9946"><path d="M 0.824219 0.929688 L 8.988281 0.929688 L 8.988281 28.589844 L 0.824219 28.589844 Z M 0.824219 0.929688 " clip-rule="nonzero"/></clipPath><clipPath id="31a9454546"><path d="M 8.988281 5.011719 L 8.988281 24.476562 C 8.988281 26.730469 7.160156 28.558594 4.90625 28.558594 C 2.652344 28.558594 0.824219 26.730469 0.824219 24.476562 L 0.824219 5.011719 C 0.824219 2.757812 2.652344 0.929688 4.90625 0.929688 C 7.160156 0.929688 8.988281 2.757812 8.988281 5.011719 Z M 8.988281 5.011719 " clip-rule="nonzero"/></clipPath><clipPath id="c0be3c6ac6"><rect x="0" width="9" y="0" height="29"/></clipPath><clipPath id="ad6c78a49e"><path d="M 42.789062 214.984375 L 116.269531 214.984375 L 116.269531 239.574219 L 42.789062 239.574219 Z M 42.789062 214.984375 " clip-rule="nonzero"/></clipPath><clipPath id="0c21f216ed"><path d="M 55.082031 214.984375 L 103.894531 214.984375 C 107.15625 214.984375 110.28125 216.28125 112.589844 218.585938 C 114.894531 220.894531 116.1875 224.019531 116.1875 227.28125 C 116.1875 230.542969 114.894531 233.667969 112.589844 235.972656 C 110.28125 238.28125 107.15625 239.574219 103.894531 239.574219 L 55.082031 239.574219 C 51.820312 239.574219 48.695312 238.28125 46.386719 235.972656 C 44.082031 233.667969 42.789062 230.542969 42.789062 227.28125 C 42.789062 224.019531 44.082031 220.894531 46.386719 218.585938 C 48.695312 216.28125 51.820312 214.984375 55.082031 214.984375 Z M 55.082031 214.984375 " clip-rule="nonzero"/></clipPath><clipPath id="c40c4f9a9d"><path d="M 0.789062 0.984375 L 74.269531 0.984375 L 74.269531 25.574219 L 0.789062 25.574219 Z M 0.789062 0.984375 " clip-rule="nonzero"/></clipPath><clipPath id="379db93c31"><path d="M 13.082031 0.984375 L 61.894531 0.984375 C 65.15625 0.984375 68.28125 2.28125 70.589844 4.585938 C 72.894531 6.894531 74.1875 10.019531 74.1875 13.28125 C 74.1875 16.542969 72.894531 19.667969 70.589844 21.972656 C 68.28125 24.28125 65.15625 25.574219 61.894531 25.574219 L 13.082031 25.574219 C 9.820312 25.574219 6.695312 24.28125 4.386719 21.972656 C 2.082031 19.667969 0.789062 16.542969 0.789062 13.28125 C 0.789062 10.019531 2.082031 6.894531 4.386719 4.585938 C 6.695312 2.28125 9.820312 0.984375 13.082031 0.984375 Z M 13.082031 0.984375 " clip-rule="nonzero"/></clipPath><clipPath id="aa6f06e5ff"><rect x="0" width="75" y="0" height="26"/></clipPath><clipPath id="0de4f54673"><path d="M 58.570312 247.832031 L 100.449219 247.832031 L 100.449219 272.421875 L 58.570312 272.421875 Z M 58.570312 247.832031 " clip-rule="nonzero"/></clipPath><clipPath id="ac2d303674"><path d="M 70.863281 247.832031 L 88.113281 247.832031 C 91.375 247.832031 94.5 249.128906 96.804688 251.433594 C 99.113281 253.738281 100.40625 256.867188 100.40625 260.128906 C 100.40625 263.390625 99.113281 266.515625 96.804688 268.820312 C 94.5 271.128906 91.375 272.421875 88.113281 272.421875 L 70.863281 272.421875 C 67.601562 272.421875 64.476562 271.128906 62.167969 268.820312 C 59.863281 266.515625 58.570312 263.390625 58.570312 260.128906 C 58.570312 256.867188 59.863281 253.738281 62.167969 251.433594 C 64.476562 249.128906 67.601562 247.832031 70.863281 247.832031 Z M 70.863281 247.832031 " clip-rule="nonzero"/></clipPath><clipPath id="edb2069d78"><path d="M 0.570312 0.832031 L 42.449219 0.832031 L 42.449219 25.421875 L 0.570312 25.421875 Z M 0.570312 0.832031 " clip-rule="nonzero"/></clipPath><clipPath id="a6773334b9"><path d="M 12.863281 0.832031 L 30.113281 0.832031 C 33.375 0.832031 36.5 2.128906 38.804688 4.433594 C 41.113281 6.738281 42.40625 9.867188 42.40625 13.128906 C 42.40625 16.390625 41.113281 19.515625 38.804688 21.820312 C 36.5 24.128906 33.375 25.421875 30.113281 25.421875 L 12.863281 25.421875 C 9.601562 25.421875 6.476562 24.128906 4.167969 21.820312 C 1.863281 19.515625 0.570312 16.390625 0.570312 13.128906 C 0.570312 9.867188 1.863281 6.738281 4.167969 4.433594 C 6.476562 2.128906 9.601562 0.832031 12.863281 0.832031 Z M 12.863281 0.832031 " clip-rule="nonzero"/></clipPath><clipPath id="57248005fb"><rect x="0" width="43" y="0" height="26"/></clipPath><clipPath id="24cc46264d"><path d="M 0 0.523438 L 157.503906 0.523438 L 157.503906 229.683594 L 0 229.683594 Z M 0 0.523438 " clip-rule="nonzero"/></clipPath><clipPath id="6ec875f4ae"><path d="M 78.722656 0.523438 C 35.246094 0.523438 0 51.847656 0 115.160156 C 0 178.472656 35.246094 229.796875 78.722656 229.796875 C 122.199219 229.796875 157.445312 178.472656 157.445312 115.160156 C 157.445312 51.847656 122.199219 0.523438 78.722656 0.523438 Z M 78.722656 0.523438 " clip-rule="nonzero"/></clipPath></defs><g clip-path="url(#64e1b68ba4)"><g clip-path="url(#ff36776b5d)"><g transform="matrix(1, 0, 0, 1, 42, 235)"><g clip-path="url(#a66f522a66)"><g clip-path="url(#1ef80d4825)"><g clip-path="url(#464dfcaf22)"><path fill="#000000" d="M 0.789062 0.539062 L 74.171875 0.539062 L 74.171875 25.128906 L 0.789062 25.128906 Z M 0.789062 0.539062 " fill-opacity="1" fill-rule="nonzero"/></g></g></g></g></g></g><g clip-path="url(#3fc305a153)"><g clip-path="url(#7787c093bb)"><g transform="matrix(1, 0, 0, 1, 61, 156)"><g clip-path="url(#725571fd6a)"><g clip-path="url(#2f8537d207)"><g clip-path="url(#5ca12bf94c)"><path fill="#000000" d="M 9.144531 0.40625 L 9.144531 73.816406 L 0.976562 73.816406 L 0.976562 0.40625 Z M 9.144531 0.40625 " fill-opacity="1" fill-rule="nonzero"/></g></g></g></g></g></g><g clip-path="url(#cf208f1e37)"><g clip-path="url(#f9d4e3e72c)"><g transform="matrix(1, 0, 0, 1, 86, 156)"><g clip-path="url(#1fdf646735)"><g clip-path="url(#ca9eeeff1d)"><g clip-path="url(#1e18a05e3f)"><path fill="#000000" d="M 8.628906 0.40625 L 8.628906 73.816406 L 0.460938 73.816406 L 0.460938 0.40625 Z M 8.628906 0.40625 " fill-opacity="1" fill-rule="nonzero"/></g></g></g></g></g></g><g clip-path="url(#a332bf4faa)"><g clip-path="url(#ace1900ee6)"><g transform="matrix(1, 0, 0, 1, 86, 156)"><g clip-path="url(#c239654401)"><g clip-path="url(#6b7de0cbfb)"><g clip-path="url(#5c569687c6)"><path fill="#000000" d="M 0.464844 0.402344 L 28.09375 0.402344 L 28.09375 8.570312 L 0.464844 8.570312 Z M 0.464844 0.402344 " fill-opacity="1" fill-rule="nonzero"/></g></g></g></g></g></g><g clip-path="url(#21625f435d)"><g clip-path="url(#d0e30cbfa4)"><g transform="matrix(1, 0, 0, 1, 42, 156)"><g clip-path="url(#962038d842)"><g clip-path="url(#636c5c3b01)"><g clip-path="url(#94485f08fc)"><path fill="#000000" d="M 0.519531 0.402344 L 28.148438 0.402344 L 28.148438 8.570312 L 0.519531 8.570312 Z M 0.519531 0.402344 " fill-opacity="1" fill-rule="nonzero"/></g></g></g></g></g></g><g clip-path="url(#15a22dcffb)"><g clip-path="url(#e00c332df6)"><g transform="matrix(1, 0, 0, 1, 42, 135)"><g clip-path="url(#e2bfb41939)"><g clip-path="url(#473295dd91)"><g clip-path="url(#fc5be08128)"><path fill="#000000" d="M 8.949219 0.929688 L 8.949219 28.558594 L 0.78125 28.558594 L 0.78125 0.929688 Z M 8.949219 0.929688 " fill-opacity="1" fill-rule="nonzero"/></g></g></g></g></g></g><g clip-path="url(#c89ade6e07)"><g clip-path="url(#f286458d9f)"><g transform="matrix(1, 0, 0, 1, 42, 135)"><g clip-path="url(#e9cf44b03c)"><g clip-path="url(#8b51fd6b82)"><g clip-path="url(#2adfe1a061)"><path fill="#000000" d="M 0.789062 0.921875 L 28.417969 0.921875 L 28.417969 9.089844 L 0.789062 9.089844 Z M 0.789062 0.921875 " fill-opacity="1" fill-rule="nonzero"/></g></g></g></g></g></g><g clip-path="url(#6d24594763)"><g clip-path="url(#fe71e0277d)"><g transform="matrix(1, 0, 0, 1, 86, 135)"><g clip-path="url(#a5dca625f9)"><g clip-path="url(#7fcef313a9)"><g clip-path="url(#ec6fe5a44d)"><path fill="#000000" d="M 0.367188 0.921875 L 27.996094 0.921875 L 27.996094 9.089844 L 0.367188 9.089844 Z M 0.367188 0.921875 " fill-opacity="1" fill-rule="nonzero"/></g></g></g></g></g></g><g clip-path="url(#07b9c17478)"><g clip-path="url(#6c0658e87d)"><g transform="matrix(1, 0, 0, 1, 62, 144)"><g clip-path="url(#96cd0ad341)"><g clip-path="url(#868642d781)"><g clip-path="url(#603971f9d3)"><path fill="#000000" d="M 0.917969 0.988281 L 32.535156 0.988281 L 32.535156 9.152344 L 0.917969 9.152344 Z M 0.917969 0.988281 " fill-opacity="1" fill-rule="nonzero"/></g></g></g></g></g></g><g clip-path="url(#cc0e14dc6a)"><g clip-path="url(#01803942ef)"><g transform="matrix(1, 0, 0, 1, 61, 136)"><g clip-path="url(#44a671ee0b)"><g clip-path="url(#044629ae4e)"><g clip-path="url(#94fd52235c)"><path fill="#000000" d="M 9.144531 0.941406 L 9.144531 17.023438 L 0.976562 17.023438 L 0.976562 0.941406 Z M 9.144531 0.941406 " fill-opacity="1" fill-rule="nonzero"/></g></g></g></g></g></g><g clip-path="url(#55f9187ea6)"><g clip-path="url(#4fee7265fe)"><g transform="matrix(1, 0, 0, 1, 86, 135)"><g clip-path="url(#148ffa7924)"><g clip-path="url(#414a17fec6)"><g clip-path="url(#b37892df0c)"><path fill="#000000" d="M 8.53125 0.925781 L 8.53125 17.003906 L 0.363281 17.003906 L 0.363281 0.925781 Z M 8.53125 0.925781 " fill-opacity="1" fill-rule="nonzero"/></g></g></g></g></g></g><g clip-path="url(#24645c7183)"><g clip-path="url(#027115a4bc)"><g transform="matrix(1, 0, 0, 1, 105, 135)"><g clip-path="url(#c0be3c6ac6)"><g clip-path="url(#eb0b7b9946)"><g clip-path="url(#31a9454546)"><path fill="#000000" d="M 8.988281 0.929688 L 8.988281 28.558594 L 0.824219 28.558594 L 0.824219 0.929688 Z M 8.988281 0.929688 " fill-opacity="1" fill-rule="nonzero"/></g></g></g></g></g></g><g clip-path="url(#ad6c78a49e)"><g clip-path="url(#0c21f216ed)"><g transform="matrix(1, 0, 0, 1, 42, 214)"><g clip-path="url(#aa6f06e5ff)"><g clip-path="url(#c40c4f9a9d)"><g clip-path="url(#379db93c31)"><path fill="#000000" d="M 0.789062 0.984375 L 74.171875 0.984375 L 74.171875 25.574219 L 0.789062 25.574219 Z M 0.789062 0.984375 " fill-opacity="1" fill-rule="nonzero"/></g></g></g></g></g></g><g clip-path="url(#0de4f54673)"><g clip-path="url(#ac2d303674)"><g transform="matrix(1, 0, 0, 1, 58, 247)"><g clip-path="url(#57248005fb)"><g clip-path="url(#edb2069d78)"><g clip-path="url(#a6773334b9)"><path fill="#000000" d="M 0.570312 0.832031 L 42.449219 0.832031 L 42.449219 25.421875 L 0.570312 25.421875 Z M 0.570312 0.832031 " fill-opacity="1" fill-rule="nonzero"/></g></g></g></g></g></g><g clip-path="url(#24cc46264d)"><g clip-path="url(#6ec875f4ae)"><path stroke-linecap="butt" transform="matrix(0.746462, 0, 0, 0.746462, -0.000000000000010608, 0.524316)" fill="none" stroke-linejoin="miter" d="M 105.461004 -0.00117705 C 47.217518 -0.00117705 0.000000000000014211 68.755441 0.000000000000014211 153.57219 C 0.000000000000014211 238.38894 47.217518 307.145558 105.461004 307.145558 C 163.704489 307.145558 210.922007 238.38894 210.922007 153.57219 C 210.922007 68.755441 163.704489 -0.00117705 105.461004 -0.00117705 Z M 105.461004 -0.00117705 " stroke="#000000" stroke-width="8" stroke-opacity="1" stroke-miterlimit="4"/></g></g></svg>