<svg xmlns="http://www.w3.org/2000/svg" xmlns:xlink="http://www.w3.org/1999/xlink" width="758" zoomAndPan="magnify" viewBox="0 0 568.5 568.499982" height="758" preserveAspectRatio="xMidYMid meet" version="1.0"><defs><clipPath id="bafd987890"><path d="M 175.074219 131.460938 L 217.792969 131.460938 L 217.792969 439.171875 L 175.074219 439.171875 Z M 175.074219 131.460938 " clip-rule="nonzero"/></clipPath><clipPath id="2b10413801"><path d="M 196.433594 131.460938 C 208.230469 131.460938 217.792969 141.023438 217.792969 152.820312 L 217.792969 417.664062 C 217.792969 429.460938 208.230469 439.023438 196.433594 439.023438 C 184.636719 439.023438 175.074219 429.460938 175.074219 417.664062 L 175.074219 152.820312 C 175.074219 141.023438 184.636719 131.460938 196.433594 131.460938 Z M 196.433594 131.460938 " clip-rule="nonzero"/></clipPath><clipPath id="3dac2ccac2"><path d="M 0.0742188 0.460938 L 42.792969 0.460938 L 42.792969 308.054688 L 0.0742188 308.054688 Z M 0.0742188 0.460938 " clip-rule="nonzero"/></clipPath><clipPath id="9091b4f2f9"><path d="M 21.433594 0.460938 C 33.230469 0.460938 42.792969 10.023438 42.792969 21.820312 L 42.792969 286.664062 C 42.792969 298.460938 33.230469 308.023438 21.433594 308.023438 C 9.636719 308.023438 0.0742188 298.460938 0.0742188 286.664062 L 0.0742188 21.820312 C 0.0742188 10.023438 9.636719 0.460938 21.433594 0.460938 Z M 21.433594 0.460938 " clip-rule="nonzero"/></clipPath><clipPath id="8b9a117939"><rect x="0" width="43" y="0" height="309"/></clipPath><clipPath id="aa414e5dfa"><path d="M 366.175781 185.578125 L 408.894531 185.578125 L 408.894531 384.988281 L 366.175781 384.988281 Z M 366.175781 185.578125 " clip-rule="nonzero"/></clipPath><clipPath id="ff53a9b01c"><path d="M 387.535156 185.578125 C 399.332031 185.578125 408.894531 195.140625 408.894531 206.9375 L 408.894531 363.546875 C 408.894531 375.34375 399.332031 384.90625 387.535156 384.90625 C 375.738281 384.90625 366.175781 375.34375 366.175781 363.546875 L 366.175781 206.9375 C 366.175781 195.140625 375.738281 185.578125 387.535156 185.578125 Z M 387.535156 185.578125 " clip-rule="nonzero"/></clipPath><clipPath id="f3d375524d"><path d="M 0.175781 0.578125 L 42.894531 0.578125 L 42.894531 199.988281 L 0.175781 199.988281 Z M 0.175781 0.578125 " clip-rule="nonzero"/></clipPath><clipPath id="6f10a617fb"><path d="M 21.535156 0.578125 C 33.332031 0.578125 42.894531 10.140625 42.894531 21.9375 L 42.894531 178.546875 C 42.894531 190.34375 33.332031 199.90625 21.535156 199.90625 C 9.738281 199.90625 0.175781 190.34375 0.175781 178.546875 L 0.175781 21.9375 C 0.175781 10.140625 9.738281 0.578125 21.535156 0.578125 Z M 21.535156 0.578125 " clip-rule="nonzero"/></clipPath><clipPath id="3ddb509350"><rect x="0" width="43" y="0" height="200"/></clipPath><clipPath id="2dbf5194bc"><path d="M 238.777344 210.175781 L 281.496094 210.175781 L 281.496094 360.359375 L 238.777344 360.359375 Z M 238.777344 210.175781 " clip-rule="nonzero"/></clipPath><clipPath id="6e780552ec"><path d="M 260.136719 210.175781 C 271.933594 210.175781 281.496094 219.738281 281.496094 231.535156 L 281.496094 338.949219 C 281.496094 350.746094 271.933594 360.308594 260.136719 360.308594 C 248.339844 360.308594 238.777344 350.746094 238.777344 338.949219 L 238.777344 231.535156 C 238.777344 219.738281 248.339844 210.175781 260.136719 210.175781 Z M 260.136719 210.175781 " clip-rule="nonzero"/></clipPath><clipPath id="61460d3a3e"><path d="M 0.777344 0.175781 L 43.496094 0.175781 L 43.496094 150.359375 L 0.777344 150.359375 Z M 0.777344 0.175781 " clip-rule="nonzero"/></clipPath><clipPath id="116ccdf9f2"><path d="M 22.136719 0.175781 C 33.933594 0.175781 43.496094 9.738281 43.496094 21.535156 L 43.496094 128.949219 C 43.496094 140.746094 33.933594 150.308594 22.136719 150.308594 C 10.339844 150.308594 0.777344 140.746094 0.777344 128.949219 L 0.777344 21.535156 C 0.777344 9.738281 10.339844 0.175781 22.136719 0.175781 Z M 22.136719 0.175781 " clip-rule="nonzero"/></clipPath><clipPath id="5803290fd8"><rect x="0" width="44" y="0" height="151"/></clipPath><clipPath id="b6c941f77f"><path d="M 302.476562 152.367188 L 345.195312 152.367188 L 345.195312 418.195312 L 302.476562 418.195312 Z M 302.476562 152.367188 " clip-rule="nonzero"/></clipPath><clipPath id="898a3f8ee3"><path d="M 323.835938 152.367188 C 335.632812 152.367188 345.195312 161.933594 345.195312 173.730469 L 345.195312 396.753906 C 345.195312 408.550781 335.632812 418.113281 323.835938 418.113281 C 312.039062 418.113281 302.476562 408.550781 302.476562 396.753906 L 302.476562 173.730469 C 302.476562 161.933594 312.039062 152.367188 323.835938 152.367188 Z M 323.835938 152.367188 " clip-rule="nonzero"/></clipPath><clipPath id="98123a8d1b"><path d="M 0.476562 0.367188 L 43.195312 0.367188 L 43.195312 266.191406 L 0.476562 266.191406 Z M 0.476562 0.367188 " clip-rule="nonzero"/></clipPath><clipPath id="45fbdf3b5e"><path d="M 21.835938 0.367188 C 33.632812 0.367188 43.195312 9.933594 43.195312 21.730469 L 43.195312 244.753906 C 43.195312 256.550781 33.632812 266.113281 21.835938 266.113281 C 10.039062 266.113281 0.476562 256.550781 0.476562 244.753906 L 0.476562 21.730469 C 0.476562 9.933594 10.039062 0.367188 21.835938 0.367188 Z M 21.835938 0.367188 " clip-rule="nonzero"/></clipPath><clipPath id="0f5109b1de"><rect x="0" width="44" y="0" height="267"/></clipPath><clipPath id="6e94aac96b"><path d="M 111.199219 238.464844 L 153.921875 238.464844 L 153.921875 332.078125 L 111.199219 332.078125 Z M 111.199219 238.464844 " clip-rule="nonzero"/></clipPath><clipPath id="c32e04c252"><path d="M 132.558594 238.464844 C 144.355469 238.464844 153.921875 248.027344 153.921875 259.824219 L 153.921875 310.660156 C 153.921875 322.457031 144.355469 332.019531 132.558594 332.019531 C 120.765625 332.019531 111.199219 322.457031 111.199219 310.660156 L 111.199219 259.824219 C 111.199219 248.027344 120.765625 238.464844 132.558594 238.464844 Z M 132.558594 238.464844 " clip-rule="nonzero"/></clipPath><clipPath id="52edb97ccc"><path d="M 0.199219 0.464844 L 42.921875 0.464844 L 42.921875 94.078125 L 0.199219 94.078125 Z M 0.199219 0.464844 " clip-rule="nonzero"/></clipPath><clipPath id="9a20334f0f"><path d="M 21.558594 0.464844 C 33.355469 0.464844 42.921875 10.027344 42.921875 21.824219 L 42.921875 72.660156 C 42.921875 84.457031 33.355469 94.019531 21.558594 94.019531 C 9.765625 94.019531 0.199219 84.457031 0.199219 72.660156 L 0.199219 21.824219 C 0.199219 10.027344 9.765625 0.464844 21.558594 0.464844 Z M 21.558594 0.464844 " clip-rule="nonzero"/></clipPath><clipPath id="2df5dc71f8"><rect x="0" width="43" y="0" height="95"/></clipPath><clipPath id="e5130031d2"><path d="M 429.878906 238.464844 L 472.597656 238.464844 L 472.597656 332.078125 L 429.878906 332.078125 Z M 429.878906 238.464844 " clip-rule="nonzero"/></clipPath><clipPath id="8e8f028e24"><path d="M 451.238281 238.464844 C 463.035156 238.464844 472.597656 248.027344 472.597656 259.824219 L 472.597656 310.660156 C 472.597656 322.457031 463.035156 332.019531 451.238281 332.019531 C 439.441406 332.019531 429.878906 322.457031 429.878906 310.660156 L 429.878906 259.824219 C 429.878906 248.027344 439.441406 238.464844 451.238281 238.464844 Z M 451.238281 238.464844 " clip-rule="nonzero"/></clipPath><clipPath id="1cbdc5278d"><path d="M 0.878906 0.464844 L 43.597656 0.464844 L 43.597656 94.078125 L 0.878906 94.078125 Z M 0.878906 0.464844 " clip-rule="nonzero"/></clipPath><clipPath id="e076a15ec6"><path d="M 22.238281 0.464844 C 34.035156 0.464844 43.597656 10.027344 43.597656 21.824219 L 43.597656 72.660156 C 43.597656 84.457031 34.035156 94.019531 22.238281 94.019531 C 10.441406 94.019531 0.878906 84.457031 0.878906 72.660156 L 0.878906 21.824219 C 0.878906 10.027344 10.441406 0.464844 22.238281 0.464844 Z M 22.238281 0.464844 " clip-rule="nonzero"/></clipPath><clipPath id="0f853628da"><rect x="0" width="44" y="0" height="95"/></clipPath></defs><g clip-path="url(#bafd987890)"><g clip-path="url(#2b10413801)"><g transform="matrix(1, 0, 0, 1, 175, 131)"><g clip-path="url(#8b9a117939)"><g clip-path="url(#3dac2ccac2)"><g clip-path="url(#9091b4f2f9)"><path fill="#6a89a7" d="M 0.0742188 0.460938 L 42.792969 0.460938 L 42.792969 308.003906 L 0.0742188 308.003906 Z M 0.0742188 0.460938 " fill-opacity="1" fill-rule="nonzero"/></g></g></g></g></g></g><g clip-path="url(#aa414e5dfa)"><g clip-path="url(#ff53a9b01c)"><g transform="matrix(1, 0, 0, 1, 366, 185)"><g clip-path="url(#3ddb509350)"><g clip-path="url(#f3d375524d)"><g clip-path="url(#6f10a617fb)"><path fill="#6a89a7" d="M 0.175781 0.578125 L 42.894531 0.578125 L 42.894531 199.988281 L 0.175781 199.988281 Z M 0.175781 0.578125 " fill-opacity="1" fill-rule="nonzero"/></g></g></g></g></g></g><g clip-path="url(#2dbf5194bc)"><g clip-path="url(#6e780552ec)"><g transform="matrix(1, 0, 0, 1, 238, 210)"><g clip-path="url(#5803290fd8)"><g clip-path="url(#61460d3a3e)"><g clip-path="url(#116ccdf9f2)"><path fill="#6a89a7" d="M 0.777344 0.175781 L 43.496094 0.175781 L 43.496094 150.359375 L 0.777344 150.359375 Z M 0.777344 0.175781 " fill-opacity="1" fill-rule="nonzero"/></g></g></g></g></g></g><g clip-path="url(#b6c941f77f)"><g clip-path="url(#898a3f8ee3)"><g transform="matrix(1, 0, 0, 1, 302, 152)"><g clip-path="url(#0f5109b1de)"><g clip-path="url(#98123a8d1b)"><g clip-path="url(#45fbdf3b5e)"><path fill="#6a89a7" d="M 0.476562 0.367188 L 43.195312 0.367188 L 43.195312 266.195312 L 0.476562 266.195312 Z M 0.476562 0.367188 " fill-opacity="1" fill-rule="nonzero"/></g></g></g></g></g></g><g clip-path="url(#6e94aac96b)"><g clip-path="url(#c32e04c252)"><g transform="matrix(1, 0, 0, 1, 111, 238)"><g clip-path="url(#2df5dc71f8)"><g clip-path="url(#52edb97ccc)"><g clip-path="url(#9a20334f0f)"><path fill="#6a89a7" d="M 0.199219 0.464844 L 42.921875 0.464844 L 42.921875 94.078125 L 0.199219 94.078125 Z M 0.199219 0.464844 " fill-opacity="1" fill-rule="nonzero"/></g></g></g></g></g></g><g clip-path="url(#e5130031d2)"><g clip-path="url(#8e8f028e24)"><g transform="matrix(1, 0, 0, 1, 429, 238)"><g clip-path="url(#0f853628da)"><g clip-path="url(#1cbdc5278d)"><g clip-path="url(#e076a15ec6)"><path fill="#6a89a7" d="M 0.878906 0.464844 L 43.597656 0.464844 L 43.597656 94.078125 L 0.878906 94.078125 Z M 0.878906 0.464844 " fill-opacity="1" fill-rule="nonzero"/></g></g></g></g></g></g></svg>