<svg xmlns="http://www.w3.org/2000/svg" xmlns:xlink="http://www.w3.org/1999/xlink" width="389" zoomAndPan="magnify" viewBox="0 0 291.75 339.74999" height="453" preserveAspectRatio="xMidYMid meet" version="1.0"><defs><g/><clipPath id="7865f78e7c"><path d="M 34.480469 18.3125 L 260.871094 18.3125 L 260.871094 290.691406 L 34.480469 290.691406 Z M 34.480469 18.3125 " clip-rule="nonzero"/></clipPath><clipPath id="770b21deed"><path d="M 147.675781 18.3125 C 85.160156 18.3125 34.480469 79.273438 34.480469 154.46875 C 34.480469 229.664062 85.160156 290.625 147.675781 290.625 C 210.191406 290.625 260.871094 229.664062 260.871094 154.46875 C 260.871094 79.273438 210.191406 18.3125 147.675781 18.3125 Z M 147.675781 18.3125 " clip-rule="nonzero"/></clipPath><clipPath id="46ce8516bf"><path d="M 0.480469 0.3125 L 226.871094 0.3125 L 226.871094 272.652344 L 0.480469 272.652344 Z M 0.480469 0.3125 " clip-rule="nonzero"/></clipPath><clipPath id="55b2c10b43"><path d="M 113.675781 0.3125 C 51.160156 0.3125 0.480469 61.273438 0.480469 136.46875 C 0.480469 211.664062 51.160156 272.625 113.675781 272.625 C 176.191406 272.625 226.871094 211.664062 226.871094 136.46875 C 226.871094 61.273438 176.191406 0.3125 113.675781 0.3125 Z M 113.675781 0.3125 " clip-rule="nonzero"/></clipPath><clipPath id="38a5e9ef8f"><rect x="0" width="227" y="0" height="273"/></clipPath><clipPath id="4e3825bb30"><path d="M 113.195312 219.558594 L 182.15625 219.558594 L 182.15625 331.976562 L 113.195312 331.976562 Z M 113.195312 219.558594 " clip-rule="nonzero"/></clipPath><clipPath id="eb63d94105"><path d="M 0.195312 0.558594 L 69.15625 0.558594 L 69.15625 112.976562 L 0.195312 112.976562 Z M 0.195312 0.558594 " clip-rule="nonzero"/></clipPath><clipPath id="435df8986e"><rect x="0" width="70" y="0" height="113"/></clipPath><clipPath id="3b4aeccd83"><path d="M 0 97.207031 L 77.9375 97.207031 L 77.9375 175.144531 L 0 175.144531 Z M 0 97.207031 " clip-rule="nonzero"/></clipPath><clipPath id="795495e3cf"><path d="M 38.96875 97.207031 C 17.445312 97.207031 0 114.652344 0 136.175781 C 0 157.699219 17.445312 175.144531 38.96875 175.144531 C 60.492188 175.144531 77.9375 157.699219 77.9375 136.175781 C 77.9375 114.652344 60.492188 97.207031 38.96875 97.207031 Z M 38.96875 97.207031 " clip-rule="nonzero"/></clipPath><clipPath id="509ab993d9"><path d="M 0 0.207031 L 77.9375 0.207031 L 77.9375 78.144531 L 0 78.144531 Z M 0 0.207031 " clip-rule="nonzero"/></clipPath><clipPath id="f927721edb"><path d="M 38.96875 0.207031 C 17.445312 0.207031 0 17.652344 0 39.175781 C 0 60.699219 17.445312 78.144531 38.96875 78.144531 C 60.492188 78.144531 77.9375 60.699219 77.9375 39.175781 C 77.9375 17.652344 60.492188 0.207031 38.96875 0.207031 Z M 38.96875 0.207031 " clip-rule="nonzero"/></clipPath><clipPath id="7d7768bfc4"><rect x="0" width="78" y="0" height="79"/></clipPath><clipPath id="4694373e21"><path d="M 9.839844 51.289062 L 87.777344 51.289062 L 87.777344 129.226562 L 9.839844 129.226562 Z M 9.839844 51.289062 " clip-rule="nonzero"/></clipPath><clipPath id="b7f8421c7b"><path d="M 48.808594 51.289062 C 27.285156 51.289062 9.839844 68.734375 9.839844 90.257812 C 9.839844 111.78125 27.285156 129.226562 48.808594 129.226562 C 70.332031 129.226562 87.777344 111.78125 87.777344 90.257812 C 87.777344 68.734375 70.332031 51.289062 48.808594 51.289062 Z M 48.808594 51.289062 " clip-rule="nonzero"/></clipPath><clipPath id="a409d336d9"><path d="M 0.839844 0.289062 L 78.777344 0.289062 L 78.777344 78.226562 L 0.839844 78.226562 Z M 0.839844 0.289062 " clip-rule="nonzero"/></clipPath><clipPath id="c4ed051d2b"><path d="M 39.808594 0.289062 C 18.285156 0.289062 0.839844 17.734375 0.839844 39.257812 C 0.839844 60.78125 18.285156 78.226562 39.808594 78.226562 C 61.332031 78.226562 78.777344 60.78125 78.777344 39.257812 C 78.777344 17.734375 61.332031 0.289062 39.808594 0.289062 Z M 39.808594 0.289062 " clip-rule="nonzero"/></clipPath><clipPath id="48c5840163"><rect x="0" width="79" y="0" height="79"/></clipPath><clipPath id="cd10d90d44"><path d="M 54.9375 19.269531 L 132.875 19.269531 L 132.875 97.207031 L 54.9375 97.207031 Z M 54.9375 19.269531 " clip-rule="nonzero"/></clipPath><clipPath id="74075b0fdb"><path d="M 93.90625 19.269531 C 72.382812 19.269531 54.9375 36.714844 54.9375 58.238281 C 54.9375 79.761719 72.382812 97.207031 93.90625 97.207031 C 115.429688 97.207031 132.875 79.761719 132.875 58.238281 C 132.875 36.714844 115.429688 19.269531 93.90625 19.269531 Z M 93.90625 19.269531 " clip-rule="nonzero"/></clipPath><clipPath id="29dea9d983"><path d="M 0.9375 0.269531 L 78.875 0.269531 L 78.875 78.207031 L 0.9375 78.207031 Z M 0.9375 0.269531 " clip-rule="nonzero"/></clipPath><clipPath id="a472e04512"><path d="M 39.90625 0.269531 C 18.382812 0.269531 0.9375 17.714844 0.9375 39.238281 C 0.9375 60.761719 18.382812 78.207031 39.90625 78.207031 C 61.429688 78.207031 78.875 60.761719 78.875 39.238281 C 78.875 17.714844 61.429688 0.269531 39.90625 0.269531 Z M 39.90625 0.269531 " clip-rule="nonzero"/></clipPath><clipPath id="c89dc210b2"><rect x="0" width="79" y="0" height="79"/></clipPath><clipPath id="83f91ca3ba"><path d="M 93.90625 0.0195312 L 171.84375 0.0195312 L 171.84375 77.957031 L 93.90625 77.957031 Z M 93.90625 0.0195312 " clip-rule="nonzero"/></clipPath><clipPath id="b7a00c1fa6"><path d="M 132.875 0.0195312 C 111.355469 0.0195312 93.90625 17.46875 93.90625 38.988281 C 93.90625 60.511719 111.355469 77.957031 132.875 77.957031 C 154.398438 77.957031 171.84375 60.511719 171.84375 38.988281 C 171.84375 17.46875 154.398438 0.0195312 132.875 0.0195312 Z M 132.875 0.0195312 " clip-rule="nonzero"/></clipPath><clipPath id="a8a2b715a0"><path d="M 0.90625 0.0195312 L 78.84375 0.0195312 L 78.84375 77.957031 L 0.90625 77.957031 Z M 0.90625 0.0195312 " clip-rule="nonzero"/></clipPath><clipPath id="7e37bd5523"><path d="M 39.875 0.0195312 C 18.355469 0.0195312 0.90625 17.46875 0.90625 38.988281 C 0.90625 60.511719 18.355469 77.957031 39.875 77.957031 C 61.398438 77.957031 78.84375 60.511719 78.84375 38.988281 C 78.84375 17.46875 61.398438 0.0195312 39.875 0.0195312 Z M 39.875 0.0195312 " clip-rule="nonzero"/></clipPath><clipPath id="9286934b5b"><rect x="0" width="79" y="0" height="78"/></clipPath><clipPath id="be58a30f9c"><path d="M 147.675781 5.761719 L 225.613281 5.761719 L 225.613281 83.699219 L 147.675781 83.699219 Z M 147.675781 5.761719 " clip-rule="nonzero"/></clipPath><clipPath id="5be903da4c"><path d="M 186.644531 5.761719 C 165.121094 5.761719 147.675781 23.207031 147.675781 44.730469 C 147.675781 66.25 165.121094 83.699219 186.644531 83.699219 C 208.167969 83.699219 225.613281 66.25 225.613281 44.730469 C 225.613281 23.207031 208.167969 5.761719 186.644531 5.761719 Z M 186.644531 5.761719 " clip-rule="nonzero"/></clipPath><clipPath id="d4183746e8"><path d="M 0.675781 0.761719 L 78.613281 0.761719 L 78.613281 78.699219 L 0.675781 78.699219 Z M 0.675781 0.761719 " clip-rule="nonzero"/></clipPath><clipPath id="702c0f557e"><path d="M 39.644531 0.761719 C 18.121094 0.761719 0.675781 18.207031 0.675781 39.730469 C 0.675781 61.25 18.121094 78.699219 39.644531 78.699219 C 61.167969 78.699219 78.613281 61.25 78.613281 39.730469 C 78.613281 18.207031 61.167969 0.761719 39.644531 0.761719 Z M 39.644531 0.761719 " clip-rule="nonzero"/></clipPath><clipPath id="b5adfd6b69"><rect x="0" width="79" y="0" height="79"/></clipPath><clipPath id="5aca0706b6"><path d="M 197.695312 38.988281 L 275.632812 38.988281 L 275.632812 116.925781 L 197.695312 116.925781 Z M 197.695312 38.988281 " clip-rule="nonzero"/></clipPath><clipPath id="fd1137a5ca"><path d="M 236.664062 38.988281 C 215.140625 38.988281 197.695312 56.4375 197.695312 77.957031 C 197.695312 99.480469 215.140625 116.925781 236.664062 116.925781 C 258.183594 116.925781 275.632812 99.480469 275.632812 77.957031 C 275.632812 56.4375 258.183594 38.988281 236.664062 38.988281 Z M 236.664062 38.988281 " clip-rule="nonzero"/></clipPath><clipPath id="5fa0a8f701"><path d="M 0.695312 0.988281 L 78.632812 0.988281 L 78.632812 78.925781 L 0.695312 78.925781 Z M 0.695312 0.988281 " clip-rule="nonzero"/></clipPath><clipPath id="5bdc0e585d"><path d="M 39.664062 0.988281 C 18.140625 0.988281 0.695312 18.4375 0.695312 39.957031 C 0.695312 61.480469 18.140625 78.925781 39.664062 78.925781 C 61.183594 78.925781 78.632812 61.480469 78.632812 39.957031 C 78.632812 18.4375 61.183594 0.988281 39.664062 0.988281 Z M 39.664062 0.988281 " clip-rule="nonzero"/></clipPath><clipPath id="6b87c924eb"><rect x="0" width="79" y="0" height="79"/></clipPath><clipPath id="0cebeb14b3"><path d="M 213.273438 97.207031 L 291.210938 97.207031 L 291.210938 175.144531 L 213.273438 175.144531 Z M 213.273438 97.207031 " clip-rule="nonzero"/></clipPath><clipPath id="b0d053b54a"><path d="M 252.242188 97.207031 C 230.71875 97.207031 213.273438 114.652344 213.273438 136.175781 C 213.273438 157.699219 230.71875 175.144531 252.242188 175.144531 C 273.765625 175.144531 291.210938 157.699219 291.210938 136.175781 C 291.210938 114.652344 273.765625 97.207031 252.242188 97.207031 Z M 252.242188 97.207031 " clip-rule="nonzero"/></clipPath><clipPath id="604570e00a"><path d="M 0.273438 0.207031 L 78.210938 0.207031 L 78.210938 78.144531 L 0.273438 78.144531 Z M 0.273438 0.207031 " clip-rule="nonzero"/></clipPath><clipPath id="35cdafc371"><path d="M 39.242188 0.207031 C 17.71875 0.207031 0.273438 17.652344 0.273438 39.175781 C 0.273438 60.699219 17.71875 78.144531 39.242188 78.144531 C 60.765625 78.144531 78.210938 60.699219 78.210938 39.175781 C 78.210938 17.652344 60.765625 0.207031 39.242188 0.207031 Z M 39.242188 0.207031 " clip-rule="nonzero"/></clipPath><clipPath id="00d209e06b"><rect x="0" width="79" y="0" height="79"/></clipPath><clipPath id="0f0aae9444"><path d="M 213.273438 90.257812 L 291.210938 90.257812 L 291.210938 168.195312 L 213.273438 168.195312 Z M 213.273438 90.257812 " clip-rule="nonzero"/></clipPath><clipPath id="679b8e92c5"><path d="M 252.242188 90.257812 C 230.71875 90.257812 213.273438 107.703125 213.273438 129.226562 C 213.273438 150.75 230.71875 168.195312 252.242188 168.195312 C 273.765625 168.195312 291.210938 150.75 291.210938 129.226562 C 291.210938 107.703125 273.765625 90.257812 252.242188 90.257812 Z M 252.242188 90.257812 " clip-rule="nonzero"/></clipPath><clipPath id="b2fb99150e"><path d="M 0.273438 0.257812 L 78.210938 0.257812 L 78.210938 78.195312 L 0.273438 78.195312 Z M 0.273438 0.257812 " clip-rule="nonzero"/></clipPath><clipPath id="4523886c68"><path d="M 39.242188 0.257812 C 17.71875 0.257812 0.273438 17.703125 0.273438 39.226562 C 0.273438 60.75 17.71875 78.195312 39.242188 78.195312 C 60.765625 78.195312 78.210938 60.75 78.210938 39.226562 C 78.210938 17.703125 60.765625 0.257812 39.242188 0.257812 Z M 39.242188 0.257812 " clip-rule="nonzero"/></clipPath><clipPath id="b847326af7"><rect x="0" width="79" y="0" height="79"/></clipPath><clipPath id="b08145b01b"><path d="M 158.726562 77.957031 L 236.664062 77.957031 L 236.664062 155.894531 L 158.726562 155.894531 Z M 158.726562 77.957031 " clip-rule="nonzero"/></clipPath><clipPath id="c8456addf7"><path d="M 197.695312 77.957031 C 176.171875 77.957031 158.726562 95.40625 158.726562 116.925781 C 158.726562 138.449219 176.171875 155.894531 197.695312 155.894531 C 219.214844 155.894531 236.664062 138.449219 236.664062 116.925781 C 236.664062 95.40625 219.214844 77.957031 197.695312 77.957031 Z M 197.695312 77.957031 " clip-rule="nonzero"/></clipPath><clipPath id="66b4b1af37"><path d="M 0.726562 0.957031 L 78.664062 0.957031 L 78.664062 78.894531 L 0.726562 78.894531 Z M 0.726562 0.957031 " clip-rule="nonzero"/></clipPath><clipPath id="f6e2ffbac6"><path d="M 39.695312 0.957031 C 18.171875 0.957031 0.726562 18.40625 0.726562 39.925781 C 0.726562 61.449219 18.171875 78.894531 39.695312 78.894531 C 61.214844 78.894531 78.664062 61.449219 78.664062 39.925781 C 78.664062 18.40625 61.214844 0.957031 39.695312 0.957031 Z M 39.695312 0.957031 " clip-rule="nonzero"/></clipPath><clipPath id="7e1bd56779"><rect x="0" width="79" y="0" height="79"/></clipPath><clipPath id="b047fa22f5"><path d="M 103.765625 58.238281 L 181.703125 58.238281 L 181.703125 136.175781 L 103.765625 136.175781 Z M 103.765625 58.238281 " clip-rule="nonzero"/></clipPath><clipPath id="c83b1f53b1"><path d="M 142.734375 58.238281 C 121.214844 58.238281 103.765625 75.683594 103.765625 97.207031 C 103.765625 118.730469 121.214844 136.175781 142.734375 136.175781 C 164.257812 136.175781 181.703125 118.730469 181.703125 97.207031 C 181.703125 75.683594 164.257812 58.238281 142.734375 58.238281 Z M 142.734375 58.238281 " clip-rule="nonzero"/></clipPath><clipPath id="2c6ab76851"><path d="M 0.765625 0.238281 L 78.703125 0.238281 L 78.703125 78.175781 L 0.765625 78.175781 Z M 0.765625 0.238281 " clip-rule="nonzero"/></clipPath><clipPath id="7dc607e561"><path d="M 39.734375 0.238281 C 18.214844 0.238281 0.765625 17.683594 0.765625 39.207031 C 0.765625 60.730469 18.214844 78.175781 39.734375 78.175781 C 61.257812 78.175781 78.703125 60.730469 78.703125 39.207031 C 78.703125 17.683594 61.257812 0.238281 39.734375 0.238281 Z M 39.734375 0.238281 " clip-rule="nonzero"/></clipPath><clipPath id="42f7a6d118"><rect x="0" width="79" y="0" height="79"/></clipPath><clipPath id="2073829727"><path d="M 39.746094 77.957031 L 117.6875 77.957031 L 117.6875 155.894531 L 39.746094 155.894531 Z M 39.746094 77.957031 " clip-rule="nonzero"/></clipPath><clipPath id="0ff71f197d"><path d="M 78.714844 77.957031 C 57.195312 77.957031 39.746094 95.40625 39.746094 116.925781 C 39.746094 138.449219 57.195312 155.894531 78.714844 155.894531 C 100.238281 155.894531 117.6875 138.449219 117.6875 116.925781 C 117.6875 95.40625 100.238281 77.957031 78.714844 77.957031 Z M 78.714844 77.957031 " clip-rule="nonzero"/></clipPath><clipPath id="266eb37ae2"><path d="M 0.746094 0.957031 L 78.6875 0.957031 L 78.6875 78.894531 L 0.746094 78.894531 Z M 0.746094 0.957031 " clip-rule="nonzero"/></clipPath><clipPath id="c51fcb91a0"><path d="M 39.714844 0.957031 C 18.195312 0.957031 0.746094 18.40625 0.746094 39.925781 C 0.746094 61.449219 18.195312 78.894531 39.714844 78.894531 C 61.238281 78.894531 78.6875 61.449219 78.6875 39.925781 C 78.6875 18.40625 61.238281 0.957031 39.714844 0.957031 Z M 39.714844 0.957031 " clip-rule="nonzero"/></clipPath><clipPath id="f52bdde142"><rect x="0" width="79" y="0" height="79"/></clipPath></defs><g clip-path="url(#7865f78e7c)"><g clip-path="url(#770b21deed)"><g transform="matrix(1, 0, 0, 1, 34, 18)"><g clip-path="url(#38a5e9ef8f)"><g clip-path="url(#46ce8516bf)"><g clip-path="url(#55b2c10b43)"><path fill="#debe78" d="M 0.480469 0.3125 L 226.871094 0.3125 L 226.871094 272.691406 L 0.480469 272.691406 Z M 0.480469 0.3125 " fill-opacity="1" fill-rule="nonzero"/></g></g></g></g></g></g><g clip-path="url(#4e3825bb30)"><g transform="matrix(1, 0, 0, 1, 113, 219)"><g clip-path="url(#435df8986e)"><g clip-path="url(#eb63d94105)"><path fill="#debe78" d="M 0.195312 0.558594 L 69.15625 0.558594 L 69.15625 112.886719 L 0.195312 112.886719 Z M 0.195312 0.558594 " fill-opacity="1" fill-rule="nonzero"/></g></g></g></g><g clip-path="url(#3b4aeccd83)"><g clip-path="url(#795495e3cf)"><g transform="matrix(1, 0, 0, 1, 0, 97)"><g clip-path="url(#7d7768bfc4)"><g clip-path="url(#509ab993d9)"><g clip-path="url(#f927721edb)"><path fill="#ff3131" d="M 0 0.207031 L 77.9375 0.207031 L 77.9375 78.144531 L 0 78.144531 Z M 0 0.207031 " fill-opacity="1" fill-rule="nonzero"/></g></g></g></g></g></g><g clip-path="url(#4694373e21)"><g clip-path="url(#b7f8421c7b)"><g transform="matrix(1, 0, 0, 1, 9, 51)"><g clip-path="url(#48c5840163)"><g clip-path="url(#a409d336d9)"><g clip-path="url(#c4ed051d2b)"><path fill="#ff3131" d="M 0.839844 0.289062 L 78.777344 0.289062 L 78.777344 78.226562 L 0.839844 78.226562 Z M 0.839844 0.289062 " fill-opacity="1" fill-rule="nonzero"/></g></g></g></g></g></g><g clip-path="url(#cd10d90d44)"><g clip-path="url(#74075b0fdb)"><g transform="matrix(1, 0, 0, 1, 54, 19)"><g clip-path="url(#c89dc210b2)"><g clip-path="url(#29dea9d983)"><g clip-path="url(#a472e04512)"><path fill="#ff3131" d="M 0.9375 0.269531 L 78.875 0.269531 L 78.875 78.207031 L 0.9375 78.207031 Z M 0.9375 0.269531 " fill-opacity="1" fill-rule="nonzero"/></g></g></g></g></g></g><g clip-path="url(#83f91ca3ba)"><g clip-path="url(#b7a00c1fa6)"><g transform="matrix(1, 0, 0, 1, 93, 0.000000000000015495)"><g clip-path="url(#9286934b5b)"><g clip-path="url(#a8a2b715a0)"><g clip-path="url(#7e37bd5523)"><path fill="#ff3131" d="M 0.90625 0.0195312 L 78.84375 0.0195312 L 78.84375 77.957031 L 0.90625 77.957031 Z M 0.90625 0.0195312 " fill-opacity="1" fill-rule="nonzero"/></g></g></g></g></g></g><g clip-path="url(#be58a30f9c)"><g clip-path="url(#5be903da4c)"><g transform="matrix(1, 0, 0, 1, 147, 5)"><g clip-path="url(#b5adfd6b69)"><g clip-path="url(#d4183746e8)"><g clip-path="url(#702c0f557e)"><path fill="#ff3131" d="M 0.675781 0.761719 L 78.613281 0.761719 L 78.613281 78.699219 L 0.675781 78.699219 Z M 0.675781 0.761719 " fill-opacity="1" fill-rule="nonzero"/></g></g></g></g></g></g><g clip-path="url(#5aca0706b6)"><g clip-path="url(#fd1137a5ca)"><g transform="matrix(1, 0, 0, 1, 197, 38)"><g clip-path="url(#6b87c924eb)"><g clip-path="url(#5fa0a8f701)"><g clip-path="url(#5bdc0e585d)"><path fill="#ff3131" d="M 0.695312 0.988281 L 78.632812 0.988281 L 78.632812 78.925781 L 0.695312 78.925781 Z M 0.695312 0.988281 " fill-opacity="1" fill-rule="nonzero"/></g></g></g></g></g></g><g clip-path="url(#0cebeb14b3)"><g clip-path="url(#b0d053b54a)"><g transform="matrix(1, 0, 0, 1, 213, 97)"><g clip-path="url(#00d209e06b)"><g clip-path="url(#604570e00a)"><g clip-path="url(#35cdafc371)"><path fill="#ff3131" d="M 0.273438 0.207031 L 78.210938 0.207031 L 78.210938 78.144531 L 0.273438 78.144531 Z M 0.273438 0.207031 " fill-opacity="1" fill-rule="nonzero"/></g></g></g></g></g></g><g clip-path="url(#0f0aae9444)"><g clip-path="url(#679b8e92c5)"><g transform="matrix(1, 0, 0, 1, 213, 90)"><g clip-path="url(#b847326af7)"><g clip-path="url(#b2fb99150e)"><g clip-path="url(#4523886c68)"><path fill="#ff3131" d="M 0.273438 0.257812 L 78.210938 0.257812 L 78.210938 78.195312 L 0.273438 78.195312 Z M 0.273438 0.257812 " fill-opacity="1" fill-rule="nonzero"/></g></g></g></g></g></g><g clip-path="url(#b08145b01b)"><g clip-path="url(#c8456addf7)"><g transform="matrix(1, 0, 0, 1, 158, 77)"><g clip-path="url(#7e1bd56779)"><g clip-path="url(#66b4b1af37)"><g clip-path="url(#f6e2ffbac6)"><path fill="#ff3131" d="M 0.726562 0.957031 L 78.664062 0.957031 L 78.664062 78.894531 L 0.726562 78.894531 Z M 0.726562 0.957031 " fill-opacity="1" fill-rule="nonzero"/></g></g></g></g></g></g><g clip-path="url(#b047fa22f5)"><g clip-path="url(#c83b1f53b1)"><g transform="matrix(1, 0, 0, 1, 103, 58)"><g clip-path="url(#42f7a6d118)"><g clip-path="url(#2c6ab76851)"><g clip-path="url(#7dc607e561)"><path fill="#ff3131" d="M 0.765625 0.238281 L 78.703125 0.238281 L 78.703125 78.175781 L 0.765625 78.175781 Z M 0.765625 0.238281 " fill-opacity="1" fill-rule="nonzero"/></g></g></g></g></g></g><g clip-path="url(#2073829727)"><g clip-path="url(#0ff71f197d)"><g transform="matrix(1, 0, 0, 1, 39, 77)"><g clip-path="url(#f52bdde142)"><g clip-path="url(#266eb37ae2)"><g clip-path="url(#c51fcb91a0)"><path fill="#ff3131" d="M 0.746094 0.957031 L 78.6875 0.957031 L 78.6875 78.894531 L 0.746094 78.894531 Z M 0.746094 0.957031 " fill-opacity="1" fill-rule="nonzero"/></g></g></g></g></g></g><g fill="#ff3131" fill-opacity="1"><g transform="translate(114.774647, 259.900807)"><g><path d="M 20.203125 -35.5 L 20.203125 -40.90625 C 20.203125 -45.59375 21.203125 -49.664062 23.203125 -53.125 C 25.203125 -56.59375 28.859375 -60.28125 34.171875 -64.1875 C 39.296875 -67.84375 42.675781 -70.816406 44.3125 -73.109375 C 45.945312 -75.398438 46.765625 -77.960938 46.765625 -80.796875 C 46.765625 -83.960938 45.59375 -86.375 43.25 -88.03125 C 40.90625 -89.695312 37.632812 -90.53125 33.4375 -90.53125 C 26.125 -90.53125 17.785156 -88.140625 8.421875 -83.359375 L 0.4375 -99.375 C 11.320312 -105.476562 22.859375 -108.53125 35.046875 -108.53125 C 45.097656 -108.53125 53.085938 -106.113281 59.015625 -101.28125 C 64.941406 -96.445312 67.90625 -90.007812 67.90625 -81.96875 C 67.90625 -76.59375 66.6875 -71.953125 64.25 -68.046875 C 61.8125 -64.148438 57.175781 -59.765625 50.34375 -54.890625 C 45.664062 -51.421875 42.703125 -48.785156 41.453125 -46.984375 C 40.210938 -45.179688 39.59375 -42.816406 39.59375 -39.890625 L 39.59375 -35.5 Z M 17.859375 -10.46875 C 17.859375 -14.5625 18.953125 -17.65625 21.140625 -19.75 C 23.335938 -21.851562 26.535156 -22.90625 30.734375 -22.90625 C 34.785156 -22.90625 37.921875 -21.832031 40.140625 -19.6875 C 42.359375 -17.539062 43.46875 -14.46875 43.46875 -10.46875 C 43.46875 -6.613281 42.34375 -3.578125 40.09375 -1.359375 C 37.851562 0.859375 34.734375 1.96875 30.734375 1.96875 C 26.640625 1.96875 23.46875 0.882812 21.21875 -1.28125 C 18.976562 -3.445312 17.859375 -6.507812 17.859375 -10.46875 Z M 17.859375 -10.46875 "/></g></g></g></svg>