<?xml version="1.0" encoding="UTF-8"?>
<svg version="1.1" xmlns="http://www.w3.org/2000/svg" width="256" height="256">
<path d="M0 0 C5.98658344 3.16456999 11.78281713 6.64090148 17.57666016 10.14257812 C19.89509437 11.53235366 22.22743068 12.8951145 24.56640625 14.25 C25.32880615 14.69263184 26.09120605 15.13526367 26.87670898 15.59130859 C28.33185706 16.43518983 29.78832853 17.27679467 31.24633789 18.11572266 C36.56896752 21.2205361 41.39971033 24.15646704 44.6171875 29.578125 C45.02453125 30.24972656 45.431875 30.92132813 45.8515625 31.61328125 C48.0898977 35.80585527 48.45086794 39.8628581 47.8671875 44.515625 C44.24134118 56.0047525 34.10990882 61.50829814 24.1796875 67.015625 C21.94647127 68.27578773 19.71339768 69.53620326 17.48046875 70.796875 C16.38428223 71.40917969 15.2880957 72.02148438 14.15869141 72.65234375 C9.93131125 75.04541342 5.76669414 77.53899425 1.61010742 80.05273438 C-5.23359536 83.70270919 -11.5078409 84.17638595 -19.1328125 83.515625 C-24.16765243 81.86785921 -27.30451497 78.94254271 -30.1328125 74.515625 C-33.25311973 67.82286037 -33.58660192 62.03604127 -33.56640625 54.7109375 C-33.5716481 53.59177948 -33.57688995 52.47262146 -33.58229065 51.31954956 C-33.58869019 48.96125108 -33.58740079 46.60292059 -33.57885742 44.24462891 C-33.5703551 40.65859444 -33.59912813 37.07415842 -33.63085938 33.48828125 C-33.63247193 31.18750047 -33.63189283 28.8867169 -33.62890625 26.5859375 C-33.64014023 25.52521027 -33.65137421 24.46448303 -33.66294861 23.37161255 C-33.59315524 15.82381372 -32.61384136 8.31562605 -27.32420349 2.54129028 C-19.6321875 -4.42390471 -9.19030483 -4.16940347 0 0 Z " fill="#6182C1" transform="translate(126.1328125,87.484375)"/>
<path d="M0 0 C2.12034561 1.63103509 3.34614451 2.96055461 5 5 C5.64453125 5.65871094 6.2890625 6.31742188 6.953125 6.99609375 C22.09388368 22.69271944 31.66517915 43.53036826 35 65 C35.18175781 66.04800781 35.36351562 67.09601563 35.55078125 68.17578125 C39.43405202 101.23423414 30.29147372 131.91569121 10 158 C3.38131282 166.32063531 3.38131282 166.32063531 -1 168 C-4.79892975 168.21874835 -8.01944918 167.79669754 -11 165.375 C-12.39733748 162.05632349 -12.30407444 159.58047648 -12 156 C-10.3125 153.296875 -10.3125 153.296875 -8 150.75 C-7.17757812 149.80125 -6.35515625 148.8525 -5.5078125 147.875 C-4.68023437 146.92625 -3.85265625 145.9775 -3 145 C6.4490789 133.37036443 12.26510239 120.47038222 16 106 C16.33837891 104.77216797 16.33837891 104.77216797 16.68359375 103.51953125 C22.08985008 80.06756413 16.46902583 54.47126202 4.8046875 33.83203125 C0.9077406 27.71669251 -3.58115263 21.84225801 -8.40161133 16.42480469 C-12.68959711 11.56829258 -12.68959711 11.56829258 -12.5625 7.875 C-12 4 -12 4 -10.5 1.5 C-7.01002266 -0.5939864 -3.90387025 -0.87364838 0 0 Z " fill="#C0CDEA" transform="translate(207,44)"/>
<path d="M0 0 C2.875 2.0625 2.875 2.0625 5 5 C5.45963981 9.02888365 5.48237886 11.22730054 3.3125 14.703125 C2.549375 15.54359375 1.78625 16.3840625 1 17.25 C0.17757812 18.19875 -0.64484375 19.1475 -1.4921875 20.125 C-2.31976563 21.07375 -3.14734375 22.0225 -4 23 C-13.4490789 34.62963557 -19.26510239 47.52961778 -23 62 C-23.22558594 62.81855469 -23.45117188 63.63710937 -23.68359375 64.48046875 C-29.08985008 87.93243587 -23.46902583 113.52873798 -11.8046875 134.16796875 C-7.89986618 140.29566455 -3.39206146 146.13392576 1.39941406 151.5949707 C3.85223054 154.40399628 4.96510056 155.80107318 5.625 159.5625 C4.82760832 163.94815425 3.60142761 165.41636715 0 168 C-4.71912539 168.7865209 -7.15161901 167.6566618 -11 165 C-14.25743813 161.54113019 -17.1075091 157.76673254 -20 154 C-20.61230469 153.21367187 -21.22460938 152.42734375 -21.85546875 151.6171875 C-39.94851188 127.18950913 -46.1857856 96.35025399 -42.37890625 66.5 C-38.94702049 44.28186917 -29.3974881 25.12217401 -15 8 C-14.51402344 7.37996094 -14.02804688 6.75992188 -13.52734375 6.12109375 C-9.58636691 1.11954821 -6.50075902 -0.92867986 0 0 Z " fill="#C0CDEA" transform="translate(56,44)"/>
<path d="M0 0 C5.69355563 1.50519287 11.16658151 2.80708115 17.0625 3.0625 C17.90039062 3.1140625 18.73828125 3.165625 19.6015625 3.21875 C26.17043224 3.43590272 32.46425538 2.69712275 38.9375 1.6875 C40.15058838 1.49849121 40.15058838 1.49849121 41.38818359 1.30566406 C45.79176394 0.57310413 49.83068823 -0.48589015 54.0625 -1.9375 C57.94428586 -2.53150994 61.09538903 -2.55744293 64.5 -0.375 C66.59817796 2.89815762 67.0625 5.17667724 67.0625 9.0625 C64.30760899 13.46766389 61.88589542 14.88471982 56.9375 16.25 C55.78378906 16.5696875 54.63007813 16.889375 53.44140625 17.21875 C31.25900082 22.75794026 6.75502128 23.14765409 -14.9375 15.0625 C-18.52734715 12.65784113 -19.71489509 11.82770439 -20.9375 7.625 C-20.9375 3.69141627 -20.35618244 2.10824825 -17.9375 -0.9375 C-12.44300974 -3.68474513 -5.59953181 -1.5807552 0 0 Z " fill="#EF791A" transform="translate(104.9375,221.9375)"/>
<path d="M0 0 C2.95537432 2.89042104 3.06024174 5.02197502 3.1328125 9.0859375 C2.03073242 12.48401776 1.21183374 13.03325667 -1.8671875 15.0859375 C-7.3390949 15.51205637 -12.06502045 14.5114112 -17.3046875 13.1484375 C-36.20496094 8.30791498 -54.2595342 9.71747029 -72.8671875 15.0859375 C-78.9300178 15.70249651 -78.9300178 15.70249651 -82.2421875 13.5234375 C-84.41945035 10.25754322 -84.8671875 8.00609884 -84.8671875 4.0859375 C-83.4353146 0.84538304 -81.81671391 -0.44434997 -78.6640625 -2.00390625 C-57.42823526 -10.04318371 -20.0493672 -13.38445494 0 0 Z " fill="#EF791A" transform="translate(168.8671875,20.9140625)"/>
</svg>
